if (_typeface_js && _typeface_js.loadFace) _typeface_js.loadFace({"glyphs":{"0":{"ha":875,"x_min":198,"x_max":665,"o":"m 665 413 q 603 163 665 269 q 395 37 529 37 q 198 328 198 37 q 268 653 198 449 q 444 897 351 897 q 609 695 540 897 q 665 413 665 533 m 583 392 q 474 597 583 508 q 424 626 436 626 q 329 520 389 626 q 272 381 272 419 q 324 303 272 330 q 419 283 364 283 q 526 308 478 283 q 583 392 583 338 z "},"1":{"ha":875,"x_min":235,"x_max":590,"o":"m 590 274 q 578 134 590 218 q 557 -6 567 65 q 362 626 512 338 q 236 849 315 699 q 294 1102 282 1010 q 590 274 590 659 z "},"2":{"ha":499,"x_min":-50,"x_max":470,"o":"m -39 128 q -10 51 -39 110 q 33 -24 17 -5 q 216 40 129 40 q 286 20 239 40 q 359 0 333 0 l 471 0 l 471 181 q 272 235 336 181 q 296 346 296 303 q 203 952 373 664 q 52 1089 131 1089 q -26 1049 1 1089 q -50 961 -50 1015 q -11 842 -50 904 q 35 888 12 865 q 92 914 64 914 q 188 785 135 914 q 232 462 240 656 q 124 252 232 339 q -39 151 35 181 l -39 128 z "},"3":{"ha":875,"x_min":188,"x_max":771,"o":"m 189 235 q 338 58 218 126 q 566 -2 445 -2 q 699 25 642 -2 q 772 129 772 60 q 599 424 772 188 q 697 490 648 457 q 755 585 755 538 q 610 824 755 669 q 394 1023 515 926 q 434 842 410 963 q 543 808 493 842 q 615 720 594 774 q 521 641 611 715 q 451 551 451 583 q 533 395 451 503 q 615 264 615 286 q 461 193 615 193 q 189 235 294 193 z "},"4":{"ha":875,"x_min":178,"x_max":710,"o":"m 710 971 q 643 772 710 833 q 449 684 595 729 q 515 306 515 499 q 458 3 515 110 q 372 444 458 210 q 178 853 310 614 l 236 1118 q 474 898 338 898 q 582 935 543 898 q 634 1017 602 955 q 695 1102 665 1076 q 705 1036 697 1092 q 710 971 710 996 z "},"5":{"ha":708,"x_min":-1,"x_max":710,"o":"m 710 971 q 643 772 710 833 q 449 684 595 729 q 515 306 515 499 q 458 3 515 110 q -1 192 111 -46 q 194 317 145 255 q 390 194 257 198 q 415 328 458 210 l 372 444 q 178 853 310 614 l 236 1118 q 474 898 338 898 q 582 935 543 898 q 634 1017 602 955 q 695 1102 665 1076 q 705 1036 697 1092 q 710 971 710 996 z "},"6":{"ha":875,"x_min":166,"x_max":749,"o":"m 166 852 l 215 1099 q 345 819 304 965 q 428 566 398 631 q 559 607 497 607 q 749 410 749 607 q 691 151 749 281 q 506 -7 619 -7 q 358 263 419 -7 q 290 614 324 438 q 166 852 263 689 m 478 386 l 478 313 q 492 282 478 309 q 512 248 507 254 q 555 222 532 222 q 609 267 578 222 q 641 337 641 313 q 597 376 641 355 q 531 394 555 394 q 478 386 517 394 z "},"7":{"ha":875,"x_min":116,"x_max":762,"o":"m 763 252 q 738 131 763 212 q 706 10 710 42 q 545 351 614 102 q 485 731 485 569 q 456 735 456 735 q 384 728 433 735 q 313 722 336 722 q 117 902 117 722 l 117 1050 q 201 972 181 982 q 321 960 227 960 q 559 1001 410 960 q 594 692 579 791 q 672 397 624 497 q 722 318 678 385 q 763 252 763 256 z "},"8":{"ha":875,"x_min":156,"x_max":749,"o":"m 749 240 l 700 -7 q 509 -80 651 -77 q 156 191 165 -83 q 356 485 214 394 q 167 681 167 485 q 224 940 167 811 q 409 1099 296 1099 q 557 829 497 1099 q 578 551 626 644 q 749 240 735 476 m 588 116 l 588 230 q 566 278 588 235 q 535 330 543 320 q 469 371 504 371 q 384 300 433 371 q 335 192 335 228 q 404 132 335 164 q 506 103 469 103 q 588 116 527 103 m 438 706 l 438 779 q 423 810 438 783 q 403 844 408 838 q 360 870 383 870 q 306 824 338 870 q 274 755 274 778 q 319 716 274 737 q 385 697 360 697 q 438 706 398 697 z "},"9":{"ha":875,"x_min":167,"x_max":749,"o":"m 749 240 l 700 -7 q 570 272 611 127 q 487 526 517 460 q 356 485 418 485 q 167 681 167 485 q 224 940 167 811 q 409 1099 296 1099 q 557 829 497 1099 q 626 478 592 653 q 749 240 652 403 m 438 706 l 438 779 q 423 810 438 783 q 403 844 408 838 q 360 870 383 870 q 306 824 338 870 q 274 755 274 778 q 319 716 274 737 q 385 697 360 697 q 438 706 398 697 z "}," ":{"ha":274,"x_min":0,"x_max":0,"o":""},"!":{"ha":467,"x_min":156,"x_max":311,"o":"m 311 827 q 285 540 311 737 q 247 246 266 393 l 220 246 q 181 552 201 399 q 156 854 156 747 q 176 919 156 892 q 234 950 198 950 q 311 827 311 950 m 309 57 q 286 3 309 26 q 233 -19 264 -19 q 179 3 201 -19 q 157 57 157 24 q 179 110 157 88 q 233 132 201 132 q 286 110 264 132 q 309 57 309 88 z "},"\"":{"ha":791,"x_min":40,"x_max":576,"o":"m 576 1005 q 556 955 576 976 q 506 935 535 935 q 481 940 498 935 q 455 945 463 945 q 431 907 431 945 q 465 819 431 855 q 544 763 488 794 l 544 734 q 419 812 466 756 q 367 949 367 871 q 400 1043 367 1001 q 486 1087 435 1087 q 549 1064 522 1087 q 576 1005 576 1040 m 248 1006 q 228 956 248 977 q 178 935 208 935 q 152 940 169 935 q 127 945 135 945 q 105 903 105 945 q 217 763 105 821 l 217 734 q 92 813 140 760 q 40 949 40 872 q 73 1043 40 1001 q 160 1087 108 1087 q 222 1064 195 1087 q 248 1006 248 1041 z "},"#":{"ha":1074,"x_min":12,"x_max":1063,"o":"m 853 903 l 747 799 l 641 903 l 747 1010 l 853 903 m 1063 299 q 1027 183 1063 245 q 958 80 993 131 q 1028 17 1023 26 q 1054 -74 1054 -15 q 817 -356 1054 -235 q 433 -460 613 -460 q 163 -394 288 -460 q 13 -183 13 -315 q 188 223 13 90 q 127 83 158 153 q 92 -62 92 -9 q 230 -249 92 -176 q 469 -310 344 -310 q 769 -249 590 -310 q 1015 -94 975 -180 q 887 -17 977 -47 q 737 9 809 9 q 824 119 752 76 q 944 181 884 150 q 1006 279 1006 219 q 958 390 1006 331 q 899 306 902 310 q 811 263 860 263 q 712 391 712 263 q 763 564 712 463 q 883 677 821 677 q 1006 518 942 677 q 1063 299 1063 378 m 680 -639 l 585 -733 l 493 -640 l 401 -733 l 308 -639 l 401 -548 l 493 -640 l 586 -548 l 680 -639 m 894 447 q 867 490 894 463 q 823 517 840 517 q 795 499 808 517 q 783 465 783 481 q 801 421 783 444 q 839 399 819 399 q 876 414 857 399 q 894 447 894 428 z "},"$":{"ha":0,"x_min":65,"x_max":294,"o":"m 295 1063 q 256 961 295 1006 q 160 917 217 917 q 66 1025 66 917 q 93 1138 66 1092 q 188 1194 126 1194 q 267 1151 235 1194 q 295 1063 295 1112 m 246 1041 q 208 1090 246 1063 q 148 1117 172 1117 q 94 1058 94 1117 q 178 1005 94 1005 q 246 1041 246 1005 z "},"%":{"ha":791,"x_min":61,"x_max":731,"o":"m 300 736 l 206 567 l 62 697 l 158 874 l 300 736 m 654 878 l 162 15 l 128 63 l 619 923 l 654 878 m 731 217 l 636 48 l 492 179 l 589 355 l 731 217 z "},"&":{"ha":791,"x_min":113,"x_max":675,"o":"m 676 224 l 636 185 l 394 427 l 152 186 l 113 224 l 355 467 l 114 708 l 153 747 l 394 506 l 635 747 l 674 708 l 433 467 l 676 224 z "},"'":{"ha":791,"x_min":183,"x_max":720,"o":"m 720 949 q 667 813 720 872 q 542 734 620 760 l 542 763 q 655 903 655 821 q 633 945 655 945 q 607 940 624 945 q 581 935 591 935 q 532 956 553 935 q 511 1006 511 977 q 538 1064 511 1041 q 599 1087 564 1087 q 687 1043 651 1087 q 720 949 720 1001 m 392 949 q 341 812 392 871 q 216 734 294 756 l 216 763 q 294 819 272 794 q 328 907 328 855 q 304 945 328 945 q 280 940 297 945 q 253 935 263 935 q 203 955 224 935 q 183 1005 183 976 q 210 1064 183 1040 q 274 1087 238 1087 q 360 1043 325 1087 q 392 949 392 1001 z "},"(":{"ha":791,"x_min":58,"x_max":435,"o":"m 435 -300 q 156 -37 257 -211 q 58 336 58 132 q 156 711 58 538 q 435 974 259 894 l 435 945 q 190 354 190 810 q 231 4 190 134 q 435 -275 288 -172 l 435 -300 z "},")":{"ha":791,"x_min":168,"x_max":547,"o":"m 547 338 q 449 -37 547 135 q 168 -300 345 -221 l 168 -275 q 415 317 415 -137 q 373 667 415 537 q 168 945 317 844 l 168 974 q 449 711 348 885 q 547 338 547 543 z "},"*":{"ha":1051,"x_min":149,"x_max":903,"o":"m 904 594 q 767 481 904 525 q 569 426 669 453 q 693 390 594 413 q 834 344 792 366 q 901 254 901 309 q 878 201 901 224 q 824 178 854 178 q 681 263 769 178 q 550 390 616 327 q 580 244 550 340 q 610 98 610 148 q 590 33 610 63 q 534 0 567 0 q 443 99 443 0 q 472 244 443 152 q 507 390 503 348 q 372 265 494 381 q 233 178 281 178 q 175 200 201 178 q 149 254 149 222 q 285 372 149 328 q 484 426 385 399 q 359 463 458 440 q 217 509 260 487 q 149 600 149 544 q 173 652 149 629 q 226 674 196 674 q 372 590 286 674 q 507 465 488 477 q 475 606 507 514 q 444 744 444 697 q 532 853 444 853 q 592 817 570 853 q 610 746 610 787 q 584 606 610 696 q 550 465 554 506 q 682 589 567 476 q 824 672 767 672 q 880 649 856 672 q 904 594 904 626 z "},"+":{"ha":791,"x_min":25,"x_max":763,"o":"m 764 438 l 421 438 l 421 97 l 366 97 l 366 438 l 25 438 l 25 494 l 366 494 l 366 835 l 421 835 l 421 494 l 764 494 l 764 438 z "},",":{"ha":591,"x_min":181,"x_max":385,"o":"m 385 63 q 359 5 385 28 q 297 -19 332 -19 q 210 28 244 -19 q 181 125 181 70 q 385 351 181 282 l 385 322 q 281 256 322 301 q 237 145 237 208 q 253 117 237 124 q 281 130 258 119 q 312 137 299 137 q 385 63 385 137 z "},"-":{"ha":791,"x_min":25,"x_max":763,"o":"m 764 438 l 25 438 l 25 494 l 764 494 l 764 438 z "},".":{"ha":591,"x_min":213,"x_max":365,"o":"m 365 56 q 342 3 365 25 q 289 -19 320 -19 q 235 3 257 -19 q 213 56 213 24 q 235 110 213 88 q 289 132 258 132 q 343 110 322 132 q 365 56 365 89 z "},"/":{"ha":875,"x_min":165,"x_max":760,"o":"m 760 1016 l 250 -210 l 165 -178 l 676 1051 l 760 1016 z "},":":{"ha":585,"x_min":213,"x_max":366,"o":"m 366 436 q 344 383 366 406 q 290 360 322 360 q 236 382 258 360 q 215 436 215 403 q 237 490 215 468 q 290 512 259 512 q 344 490 322 512 q 366 436 366 468 m 365 57 q 343 3 365 25 q 289 -19 321 -19 q 235 3 256 -19 q 213 57 213 24 q 235 111 213 89 q 289 133 257 133 q 343 111 321 133 q 365 57 365 89 z "},";":{"ha":591,"x_min":181,"x_max":385,"o":"m 385 438 q 359 380 385 403 q 297 357 332 357 q 210 403 244 357 q 181 501 181 446 q 385 728 181 658 l 385 697 q 281 633 322 678 q 237 522 237 583 q 253 493 237 500 q 281 506 258 494 q 312 513 299 513 q 385 438 385 513 m 365 56 q 342 3 365 25 q 289 -19 320 -19 q 235 3 257 -19 q 213 56 213 24 q 235 110 213 88 q 289 132 258 132 q 343 110 322 132 q 365 56 365 89 z "},"<":{"ha":627,"x_min":199,"x_max":604,"o":"m 199 215 q 258 31 199 97 q 437 -39 320 -39 q 555 -28 528 -39 q 604 68 604 -8 q 595 175 604 78 q 453 135 524 135 q 327 151 401 135 q 231 199 231 170 q 318 341 231 274 q 476 406 401 406 l 477 533 q 468 628 478 588 q 267 467 340 585 q 199 215 199 356 z "},"=":{"ha":791,"x_min":25,"x_max":764,"o":"m 765 549 l 25 549 l 25 605 l 765 605 l 765 549 m 765 326 l 25 326 l 25 382 l 765 382 l 765 326 z "},">":{"ha":627,"x_min":199,"x_max":604,"o":"m 604 215 q 545 31 604 97 q 366 -39 483 -39 q 248 -28 275 -39 q 199 68 199 -8 q 208 175 199 78 q 350 135 279 135 q 476 151 402 135 q 572 199 572 170 q 485 341 572 274 q 327 406 402 406 l 326 533 q 335 628 325 588 q 536 467 463 585 q 604 215 604 356 z "},"?":{"ha":622,"x_min":30,"x_max":534,"o":"m 535 753 q 517 683 535 714 q 458 646 495 646 q 419 663 435 646 q 404 704 404 680 q 425 762 404 724 q 445 823 445 801 q 401 890 445 865 q 317 911 363 911 q 197 853 242 911 q 158 722 158 800 q 198 567 158 653 q 274 412 236 490 q 315 219 315 314 l 286 219 q 220 409 286 317 q 97 558 159 483 q 31 735 31 646 q 110 897 31 838 q 288 950 181 950 q 454 901 384 950 q 535 753 535 846 m 372 58 q 350 3 372 25 q 296 -18 328 -18 q 241 4 264 -18 q 219 58 219 26 q 241 112 219 90 q 296 134 264 134 q 350 112 328 134 q 372 58 372 90 z "},"@":{"ha":622,"x_min":-39,"x_max":573,"o":"m 573 299 q 559 145 573 180 q 433 81 533 81 q 235 113 371 81 q 57 0 128 0 l -39 0 l -39 181 q 105 213 105 181 q 96 256 105 226 q 88 301 88 285 q 114 399 88 340 q 167 485 139 456 q 154 505 165 492 q 143 526 143 517 q 173 620 143 551 q 223 693 204 693 q 433 519 337 613 q 573 299 573 381 m 517 222 q 447 321 507 260 q 350 398 390 378 q 366 333 366 365 q 342 239 366 299 q 426 227 385 233 q 501 207 483 219 l 517 222 m 311 327 q 281 390 311 358 q 224 430 255 418 q 178 375 222 426 q 144 310 154 345 q 235 278 204 278 q 281 292 256 278 q 311 327 311 308 z "},"A":{"ha":598,"x_min":17,"x_max":636,"o":"m 636 0 l 487 0 q 397 67 432 0 q 352 183 374 125 q 249 89 300 110 q 117 72 210 72 q 17 116 17 72 q 103 324 17 236 q 297 452 162 382 l 286 572 q 225 593 285 593 q 95 558 166 594 l 66 667 q 245 698 175 713 q 342 629 316 682 q 375 410 344 563 q 472 188 415 215 q 636 181 490 181 l 636 0 m 320 295 q 304 365 320 305 q 137 271 228 331 q 208 255 181 255 q 272 266 232 255 q 320 295 320 279 z "},"B":{"ha":773,"x_min":-39,"x_max":749,"o":"m 596 797 l 490 692 l 384 797 l 490 903 l 596 797 m 749 425 q 565 126 749 262 q 224 0 393 0 l -39 0 l -39 181 l 35 181 q 185 342 86 233 l 185 906 q 128 978 138 949 q 248 1168 178 1114 q 256 1059 248 1083 q 335 993 272 1019 q 307 907 322 950 q 256 835 285 851 l 264 390 q 419 501 341 446 q 590 565 515 565 q 749 425 749 565 m 638 333 q 478 397 549 397 q 145 181 360 397 l 288 181 q 638 333 562 181 z "},"C":{"ha":556,"x_min":176,"x_max":708,"o":"m 708 278 q 652 128 690 242 q 404 40 596 83 q 208 181 249 39 q 176 327 176 244 q 239 517 176 429 q 407 613 308 613 q 622 462 560 613 q 463 494 534 494 q 337 463 415 494 q 247 390 247 428 q 308 279 247 344 q 418 214 369 214 q 429 215 424 214 l 708 278 z "},"D":{"ha":598,"x_min":17,"x_max":636,"o":"m 636 0 l 487 0 q 397 67 432 0 q 352 183 374 125 q 249 89 300 110 q 117 72 210 72 q 17 116 17 72 q 103 324 17 236 q 297 452 162 382 q 276 858 260 648 q 334 955 274 879 q 375 410 328 694 q 472 188 415 215 q 636 181 490 181 l 636 0 m 320 295 q 304 365 320 305 q 137 271 228 331 q 208 255 181 255 q 272 266 232 255 q 320 295 320 279 z "},"E":{"ha":697,"x_min":-53,"x_max":726,"o":"m -53 0 l 82 0 q 213 -236 146 -158 q 448 -349 311 -349 q 726 -231 606 -349 q 530 -242 598 -242 q 312 -182 404 -242 q 153 -15 229 -130 q 283 4 218 -6 q 352 96 352 23 q 304 248 352 154 q 201 351 251 351 q 123 281 162 351 q 74 176 99 228 q -53 176 7 169 l -53 0 m 169 119 q 189 180 178 165 q 242 215 199 194 q 274 156 257 188 q 265 128 265 149 q 169 119 210 119 z "},"F":{"ha":368,"x_min":78,"x_max":552,"o":"m 435 1299 q 337 1183 435 1208 q 165 1172 301 1174 q 124 1165 131 1171 q 121 1104 122 1147 q 78 1189 78 1133 q 103 1240 78 1228 q 163 1248 120 1248 q 246 1339 215 1313 q 355 1384 299 1384 q 435 1299 435 1384 m 553 1072 l 409 1072 q 282 1014 328 1072 q 213 591 226 942 q 208 124 208 488 q 228 52 208 78 q 282 -1 255 26 l 282 580 q 445 619 342 638 l 442 731 q 304 794 351 724 l 326 824 q 553 892 378 892 l 553 1072 m 370 1299 q 333 1331 370 1331 q 212 1248 276 1331 l 281 1248 q 370 1299 370 1248 z "},"G":{"ha":826,"x_min":22,"x_max":785,"o":"m 775 741 l 681 648 l 590 740 l 497 648 l 404 741 l 497 832 l 590 740 l 681 832 l 775 741 m 786 122 q 642 -181 786 -49 q 328 -308 501 -308 q 102 -228 182 -308 q 22 -1 22 -148 q 45 156 22 74 q 127 280 75 260 q 85 81 85 142 q 356 -133 85 -133 q 563 -95 466 -133 q 732 25 668 -53 l 732 89 q 656 81 672 81 q 485 217 485 81 q 528 358 485 279 q 632 447 576 447 q 751 315 707 447 q 786 122 786 215 m 668 224 l 668 265 q 608 328 631 328 q 549 265 597 328 l 549 241 q 613 217 602 216 l 668 224 z "},"H":{"ha":845,"x_min":199,"x_max":1148,"o":"m 661 -3 q 628 183 647 126 q 509 29 536 51 q 320 -15 452 -15 q 199 12 244 -22 l 199 190 q 333 159 262 159 q 483 188 403 159 q 611 267 573 219 l 547 613 q 588 770 546 622 q 651 458 622 581 q 929 416 849 531 q 1020 245 992 333 q 1149 181 1047 157 l 1149 -5 q 956 78 982 -25 q 861 303 899 254 q 681 331 814 383 q 796 54 711 205 q 661 -3 760 -21 z "},"I":{"ha":446,"x_min":199,"x_max":604,"o":"m 503 919 l 397 816 l 291 919 l 397 1026 l 503 919 m 604 215 q 545 31 604 97 q 366 -39 483 -39 q 248 -28 275 -39 q 199 68 199 -8 q 208 175 199 78 q 350 135 279 135 q 476 151 402 135 q 572 199 572 170 q 485 341 572 274 q 327 406 402 406 l 326 533 q 335 628 325 588 q 536 467 463 585 q 604 215 604 356 z "},"J":{"ha":598,"x_min":-47,"x_max":614,"o":"m 500 553 l 394 449 l 288 553 l 394 660 l 500 553 m 615 0 l 556 1 q 518 -10 534 1 q 418 -241 506 -116 q 223 -381 319 -381 q 74 -337 153 -381 q -47 -238 6 -299 q 35 -258 -6 -248 q 116 -271 86 -271 q 322 -174 185 -271 q 463 -11 463 -74 q 426 51 463 -6 q 383 121 385 117 q 415 239 405 170 q 505 183 463 191 q 615 181 518 181 l 615 0 z "},"K":{"ha":606,"x_min":206,"x_max":895,"o":"m 853 0 l 747 0 q 665 69 697 0 q 628 183 647 126 q 509 29 536 51 q 320 -15 452 -15 q 207 6 199 -15 l 207 184 q 333 159 262 159 q 483 188 403 159 q 611 267 573 219 l 525 842 q 566 999 524 851 q 667 458 622 794 l 681 331 q 868 468 724 467 l 895 353 q 714 247 794 351 q 753 186 711 205 q 853 181 777 175 l 853 0 z "},"L":{"ha":357,"x_min":208,"x_max":553,"o":"m 553 0 l 409 0 q 282 58 328 0 q 213 481 226 131 q 208 948 208 585 q 228 1020 208 994 q 282 1074 255 1047 l 282 492 q 326 249 282 306 q 553 181 378 181 l 553 0 z "},"M":{"ha":1010,"x_min":-38,"x_max":1049,"o":"m 1050 0 l 899 0 q 816 56 879 0 q 715 0 766 0 q 647 21 688 0 q 581 56 614 38 q 418 0 498 0 q 324 22 378 0 q 235 64 279 43 q 128 0 169 0 l -39 0 l -39 181 q 15 180 -17 181 q 59 179 47 179 q 171 200 133 179 q 278 310 213 224 q 320 201 278 231 q 438 176 356 176 q 574 221 532 176 q 652 342 613 281 q 636 215 652 281 q 728 176 660 176 q 822 235 783 176 q 875 342 848 288 q 886 285 886 311 q 881 260 886 277 q 875 238 875 244 q 993 179 875 179 q 1025 180 1005 179 q 1050 181 1044 181 l 1050 0 z "},"N":{"ha":802,"x_min":-49,"x_max":796,"o":"m 796 334 q 771 147 796 238 q 666 15 735 15 q 594 45 644 15 q 524 88 559 67 q 340 0 434 0 q 249 22 301 0 q 164 64 207 43 q 63 0 87 0 l -49 0 l -49 181 q 115 198 86 181 q 205 326 136 212 q 215 238 210 281 q 243 180 221 196 q 335 159 270 159 q 482 220 426 159 q 578 350 531 285 q 574 307 578 339 q 570 265 570 280 q 697 183 570 183 q 737 192 716 183 q 748 220 748 220 q 722 299 748 235 q 777 413 735 333 q 796 334 796 351 z "},"O":{"ha":424,"x_min":83,"x_max":401,"o":"m 401 267 q 355 88 401 163 q 202 0 300 0 q 83 147 83 0 q 155 383 83 238 q 150 402 154 389 q 147 424 147 416 q 188 572 147 475 q 283 481 217 536 q 366 397 344 431 q 401 267 401 344 m 338 227 q 203 350 338 250 q 154 239 154 301 q 217 159 154 159 q 288 183 243 159 q 338 227 338 207 z "},"P":{"ha":483,"x_min":169,"x_max":748,"o":"m 170 -303 l 215 -481 q 345 -201 304 -347 q 428 52 398 -13 q 559 11 497 11 q 749 208 749 11 q 691 467 749 338 q 506 625 619 625 q 358 356 419 625 q 307 -35 367 149 q 170 -303 242 -214 m 478 232 l 478 306 q 486 356 478 309 q 499 409 494 403 q 542 435 519 435 q 603 383 565 435 q 641 281 641 331 q 597 194 641 219 q 531 176 555 176 q 478 232 504 176 z "},"Q":{"ha":478,"x_min":-38,"x_max":453,"o":"m 376 885 l 271 781 l 164 885 l 271 992 l 376 885 m 453 282 q 367 88 453 176 q 176 0 281 0 l -39 0 l -39 181 l 247 181 q 337 197 278 181 q 406 239 406 217 q 366 326 406 261 q 247 277 302 277 q 163 315 193 277 q 135 406 135 351 q 175 552 135 472 q 278 644 220 644 q 329 615 292 644 q 453 282 453 515 m 319 406 l 319 428 q 255 500 294 473 q 212 466 219 476 q 192 413 204 456 q 223 399 192 413 q 255 390 244 390 q 319 406 272 390 z "},"R":{"ha":499,"x_min":-38,"x_max":510,"o":"m 471 128 q 442 51 471 110 q 399 -24 415 -5 q 216 40 303 40 q 146 20 193 40 q 73 0 99 0 l -39 0 l -39 181 q 160 235 96 181 q 136 346 136 303 q 226 586 163 472 q 378 692 299 692 q 456 652 428 692 q 480 564 480 618 q 458 467 480 508 q 395 492 418 469 q 338 517 366 517 q 260 480 294 517 q 226 397 226 442 q 308 252 200 339 q 471 151 397 181 l 471 128 m 510 -322 l 417 -415 l 325 -322 l 232 -415 l 140 -322 l 233 -230 l 325 -322 l 417 -230 l 510 -322 z "},"S":{"ha":935,"x_min":17,"x_max":909,"o":"m 910 531 q 890 452 910 496 q 854 380 873 417 q 826 408 831 405 q 792 428 817 417 q 651 348 731 410 q 560 224 560 276 q 645 159 560 176 q 801 131 723 144 q 885 27 885 103 q 676 -244 885 -124 q 327 -350 490 -350 q 94 -263 173 -350 q 17 -24 17 -180 q 50 133 17 43 q 136 261 88 238 q 97 59 97 124 q 366 -176 97 -176 q 602 -126 463 -176 q 799 -1 762 -70 q 670 4 735 2 q 550 37 591 11 q 497 142 497 70 q 622 424 497 260 q 866 594 752 594 l 897 576 q 910 531 910 549 z "},"T":{"ha":364,"x_min":208,"x_max":553,"o":"m 553 0 l 409 0 q 282 58 328 0 q 213 481 226 131 q 208 948 208 585 q 228 1020 208 994 q 282 1074 255 1047 l 282 783 q 448 774 365 741 l 494 727 q 282 638 361 626 l 282 492 q 326 249 282 306 q 553 181 378 181 l 553 0 z "},"U":{"ha":1134,"x_min":10,"x_max":1112,"o":"m 772 642 l 678 549 l 586 641 l 493 549 l 401 642 l 494 733 l 586 641 l 678 733 l 772 642 m 1113 361 q 430 -17 1113 -17 q 11 247 11 -17 q 129 467 11 355 q 91 328 91 375 q 255 170 91 221 q 506 134 369 134 q 788 165 628 134 q 1039 263 985 204 q 959 390 1039 331 q 1017 564 1003 502 q 1113 361 1113 501 z "},"V":{"ha":1134,"x_min":10,"x_max":1156,"o":"m 1156 0 l 1088 0 q 947 134 1017 0 q 367 -31 655 -31 q 124 36 222 -31 q 10 251 10 113 q 43 380 10 316 q 128 478 75 443 q 81 337 81 385 q 241 173 81 227 q 492 134 355 134 q 990 329 796 134 q 1034 209 1003 238 q 1156 181 1065 181 l 1156 0 m 562 -282 l 456 -387 l 349 -282 l 456 -176 l 562 -282 z "},"W":{"ha":1085,"x_min":13,"x_max":1017,"o":"m 535 1040 q 497 951 535 1014 q 501 1017 501 978 q 491 1098 501 1044 q 481 1178 481 1151 q 511 1249 481 1221 q 523 1143 511 1214 q 535 1040 535 1073 m 654 906 q 572 798 654 798 q 542 803 561 798 q 464 751 504 751 q 422 774 438 751 q 408 822 408 795 q 438 892 408 863 q 471 818 453 818 q 509 860 493 818 q 527 921 511 865 q 551 888 528 921 q 575 863 568 863 q 624 966 624 863 l 646 966 q 650 935 646 956 q 654 906 654 915 m 1018 676 q 998 623 1016 663 q 980 579 980 582 q 988 432 980 531 q 996 285 996 334 q 963 98 996 171 q 817 -3 917 -3 q 694 17 728 -3 q 617 111 660 37 q 547 22 569 38 q 437 0 515 0 q 328 27 358 0 q 267 126 312 42 q 194 63 204 68 q 107 52 173 52 q 48 55 61 52 q 14 94 14 63 q 58 222 14 173 q 149 290 78 246 q 231 365 210 328 q 217 412 217 406 q 260 490 217 444 q 286 269 260 360 q 426 127 328 127 q 572 226 572 127 q 571 245 572 235 l 527 613 q 601 706 524 636 q 669 179 643 212 q 799 127 709 127 q 936 183 936 127 q 869 691 936 419 q 966 832 911 801 l 964 788 q 978 724 962 744 q 1018 676 999 700 m 237 211 q 230 268 230 235 q 103 186 187 242 q 128 183 112 186 q 151 180 145 180 q 237 211 201 180 z "},"X":{"ha":1030,"x_min":6,"x_max":1055,"o":"m 1056 0 l 913 0 q 757 164 804 0 q 724 454 724 278 q 726 533 724 495 q 582 92 678 219 q 158 -78 453 -78 q 392 84 247 -36 q 578 288 549 215 q 253 740 533 533 q 159 723 200 723 q 6 896 6 723 q 24 958 6 926 q 74 995 45 995 q 348 812 175 995 q 555 533 500 651 q 611 342 574 490 q 670 631 660 506 q 675 947 675 691 q 794 1083 701 984 q 791 995 794 1087 q 788 822 788 903 q 926 190 788 237 q 1056 181 956 181 l 1056 0 z "},"Y":{"ha":878,"x_min":67,"x_max":867,"o":"m 353 1275 q 322 1224 337 1249 q 261 1222 319 1222 q 98 1147 191 1222 q 96 1169 96 1160 q 101 1194 96 1177 q 106 1219 106 1211 q 90 1261 106 1234 q 74 1299 74 1288 q 144 1386 74 1331 q 244 1441 212 1441 q 274 1428 261 1441 q 288 1398 288 1415 q 266 1356 288 1356 q 235 1362 256 1356 q 205 1369 215 1369 q 138 1306 161 1369 q 264 1272 185 1272 q 308 1274 278 1272 q 353 1275 338 1275 m 867 900 q 840 813 846 826 q 788 741 820 760 l 774 756 q 737 567 753 701 q 694 367 719 433 q 750 152 750 288 q 715 13 750 44 q 574 -16 682 -16 q 385 6 457 -16 l 385 176 l 456 152 q 548 242 491 174 q 624 347 599 304 q 465 558 563 435 q 289 749 336 719 q 259 727 283 746 q 217 716 246 716 q 108 781 155 716 q 67 904 67 839 q 85 969 67 942 q 142 1002 106 1002 q 426 767 238 1002 q 663 438 447 740 q 701 612 678 464 q 724 797 724 751 q 703 839 724 809 q 676 888 680 873 q 788 1075 708 1009 q 780 1006 780 1033 q 867 900 780 940 m 694 192 q 677 235 694 193 q 655 287 657 278 q 552 152 629 222 q 687 159 572 152 q 694 192 694 197 z "},"Z":{"ha":783,"x_min":-38,"x_max":783,"o":"m 783 769 q 736 603 767 715 q 670 608 703 608 q 372 540 589 608 q 133 413 133 467 q 189 317 133 360 q 307 252 223 291 q 410 195 388 215 q 347 16 385 137 q 196 64 240 64 q 101 32 167 64 q -39 0 35 0 l -39 181 q 133 195 49 181 q 94 365 94 266 q 211 565 94 494 q 433 675 322 620 q 336 739 392 708 q 231 778 267 778 q 115 731 201 778 l 109 738 q 161 867 109 802 q 278 937 217 937 q 398 893 315 937 q 566 813 517 832 q 783 769 679 769 z "},"[":{"ha":336,"x_min":-46,"x_max":305,"o":"m -11 710 l 96 607 l 201 710 l 96 817 l -11 710 m -46 283 q 30 60 -46 125 q 259 0 100 0 l 305 0 l 305 181 l 254 180 q 10 230 52 177 q 59 340 19 264 q -8 483 33 388 q -46 283 -46 327 z "},"\\":{"ha":875,"x_min":165,"x_max":760,"o":"m 165 1016 l 675 -210 l 760 -178 l 249 1051 l 165 1016 z "},"]":{"ha":330,"x_min":-45,"x_max":306,"o":"m 271 710 l 164 607 l 58 710 l 164 817 l 271 710 m 306 283 q 230 60 306 125 q 1 0 160 0 l -45 0 l -45 181 l 6 180 q 250 230 208 177 q 201 340 240 264 q 268 483 226 388 q 306 283 306 327 z "},"^":{"ha":0,"x_min":58,"x_max":374,"o":"m 374 1455 q 356 1358 374 1397 q 280 1306 331 1306 q 224 1323 250 1306 q 190 1270 219 1294 q 131 1247 160 1247 q 75 1278 95 1247 q 59 1344 59 1306 q 78 1433 59 1374 l 99 1436 q 133 1339 99 1339 q 192 1394 171 1339 q 214 1483 201 1416 l 230 1489 q 280 1401 248 1401 q 341 1531 341 1401 l 362 1540 q 374 1455 374 1494 m 363 1275 q 335 1195 363 1211 l 66 1040 q 124 1134 66 1100 l 363 1275 m 367 1143 q 335 1066 367 1084 l 66 912 q 78 967 66 948 q 124 1001 90 982 l 367 1143 z "},"_":{"ha":853,"x_min":-38,"x_max":885,"o":"m 885 0 l -39 0 l -39 181 l 35 181 l 192 166 l 479 159 q 776 162 649 171 q 885 181 859 178 l 885 0 z "},"`":{"ha":397,"x_min":-45,"x_max":367,"o":"m 306 283 q 230 60 306 125 q 1 0 160 0 l -45 0 l -45 181 l 6 180 q 250 230 208 177 q 201 340 240 264 q 268 483 226 388 q 306 283 306 327 m 367 -235 l 274 -328 l 182 -236 l 89 -328 l -3 -235 l 90 -144 l 182 -236 l 274 -144 l 367 -235 z "},"a":{"ha":598,"x_min":17,"x_max":636,"o":"m 636 0 l 487 0 q 397 67 432 0 q 352 183 374 125 q 249 89 300 110 q 117 72 210 72 q 17 116 17 72 q 103 324 17 236 q 297 452 162 382 l 286 572 q 225 593 285 593 q 95 558 166 594 l 66 667 q 245 698 175 713 q 342 629 316 682 q 375 410 344 563 q 472 188 415 215 q 636 181 490 181 l 636 0 m 320 295 q 304 365 320 305 q 137 271 228 331 q 208 255 181 255 q 272 266 232 255 q 320 295 320 279 z "},"b":{"ha":928,"x_min":139,"x_max":1064,"o":"m 870 783 l 764 679 l 658 783 l 764 889 l 870 783 m 278 -6 l 141 -8 l 139 182 l 227 181 q 364 205 300 142 q 428 287 428 268 l 428 883 q 405 925 428 894 q 381 973 381 956 q 424 1072 381 1003 q 493 1160 464 1137 q 485 1091 485 1119 q 572 985 485 1026 q 546 899 554 919 q 493 826 525 846 l 500 319 q 689 444 594 382 q 890 526 819 526 q 1007 480 953 526 q 1064 370 1064 433 q 1033 179 1064 281 q 835 32 1000 86 q 278 -6 671 -22 m 930 280 q 865 338 930 315 q 769 358 813 358 q 428 160 630 358 q 496 152 462 152 q 737 185 583 152 q 930 280 930 226 z "},"c":{"ha":556,"x_min":176,"x_max":708,"o":"m 708 278 q 652 128 690 242 q 404 40 596 83 q 208 181 249 39 q 176 327 176 244 q 239 517 176 429 q 407 613 308 613 q 622 462 560 613 q 463 494 534 494 q 337 463 415 494 q 247 390 247 428 q 308 279 247 344 q 418 214 369 214 q 429 215 424 214 l 708 278 z "},"d":{"ha":598,"x_min":17,"x_max":636,"o":"m 636 0 l 487 0 q 397 67 432 0 q 352 183 374 125 q 249 89 300 110 q 117 72 210 72 q 17 116 17 72 q 103 324 17 236 q 297 452 162 382 q 276 858 260 648 q 334 955 274 879 q 375 410 328 694 q 472 188 415 215 q 636 181 490 181 l 636 0 m 320 295 q 304 365 320 305 q 137 271 228 331 q 208 255 181 255 q 272 266 232 255 q 320 295 320 279 z "},"e":{"ha":552,"x_min":-38,"x_max":576,"o":"m 478 813 l 383 720 l 291 812 l 199 720 l 106 813 l 199 904 l 291 812 l 384 904 l 478 813 m 576 0 l 422 0 q 264 79 362 0 q 73 0 144 0 l -39 0 l -39 181 q 152 190 62 181 q 144 278 144 238 q 203 480 144 365 q 347 613 270 613 q 428 543 397 613 q 454 428 454 487 q 383 204 454 310 q 476 178 407 181 q 576 181 404 181 l 576 0 m 366 341 q 347 388 366 363 q 307 413 328 413 q 234 381 268 413 q 200 310 200 349 q 228 265 200 292 q 272 239 257 239 q 331 278 296 239 q 366 341 366 317 z "},"f":{"ha":368,"x_min":78,"x_max":552,"o":"m 435 1299 q 337 1183 435 1208 q 165 1172 301 1174 q 124 1165 131 1171 q 121 1104 122 1147 q 78 1189 78 1133 q 103 1240 78 1228 q 163 1248 120 1248 q 246 1339 215 1313 q 355 1384 299 1384 q 435 1299 435 1384 m 553 1072 l 409 1072 q 282 1014 328 1072 q 213 591 226 942 q 208 124 208 488 q 228 52 208 78 q 282 -1 255 26 l 282 580 q 445 619 342 638 l 442 731 q 304 794 351 724 l 326 824 q 553 892 378 892 l 553 1072 m 370 1299 q 333 1331 370 1331 q 212 1248 276 1331 l 281 1248 q 370 1299 370 1248 z "},"g":{"ha":826,"x_min":22,"x_max":785,"o":"m 775 741 l 681 648 l 590 740 l 497 648 l 404 741 l 497 832 l 590 740 l 681 832 l 775 741 m 786 122 q 642 -181 786 -49 q 328 -308 501 -308 q 102 -228 182 -308 q 22 -1 22 -148 q 45 156 22 74 q 127 280 75 260 q 85 81 85 142 q 356 -133 85 -133 q 563 -95 466 -133 q 732 25 668 -53 l 732 89 q 656 81 672 81 q 485 217 485 81 q 528 358 485 279 q 632 447 576 447 q 751 315 707 447 q 786 122 786 215 m 668 224 l 668 265 q 608 328 631 328 q 549 265 597 328 l 549 241 q 613 217 602 216 l 668 224 z "},"h":{"ha":845,"x_min":199,"x_max":1148,"o":"m 661 -3 q 628 183 647 126 q 509 29 536 51 q 320 -15 452 -15 q 199 12 244 -22 l 199 190 q 333 159 262 159 q 483 188 403 159 q 611 267 573 219 l 547 613 q 588 770 546 622 q 651 458 622 581 q 929 416 849 531 q 1020 245 992 333 q 1149 181 1047 157 l 1149 -5 q 956 78 982 -25 q 861 303 899 254 q 681 331 814 383 q 796 54 711 205 q 661 -3 760 -21 z "},"i":{"ha":452,"x_min":199,"x_max":604,"o":"m 503 919 l 397 816 l 291 919 l 397 1026 l 503 919 m 604 215 q 545 31 604 97 q 366 -39 483 -39 q 248 -28 275 -39 q 199 68 199 -8 q 208 175 199 78 q 350 135 279 135 q 476 151 402 135 q 572 199 572 170 q 485 341 572 274 q 327 406 402 406 l 326 533 q 335 628 325 588 q 536 467 463 585 q 604 215 604 356 z "},"j":{"ha":598,"x_min":-47,"x_max":614,"o":"m 500 553 l 394 449 l 288 553 l 394 660 l 500 553 m 615 0 l 556 1 q 518 -10 534 1 q 418 -241 506 -116 q 223 -381 319 -381 q 74 -337 153 -381 q -47 -238 6 -299 q 35 -258 -6 -248 q 116 -271 86 -271 q 322 -174 185 -271 q 463 -11 463 -74 q 426 51 463 -6 q 383 121 385 117 q 415 239 405 170 q 505 183 463 191 q 615 181 518 181 l 615 0 z "},"k":{"ha":606,"x_min":206,"x_max":895,"o":"m 853 0 l 747 0 q 665 69 697 0 q 628 183 647 126 q 509 29 536 51 q 320 -15 452 -15 q 207 6 199 -15 l 207 184 q 333 159 262 159 q 483 188 403 159 q 611 267 573 219 l 525 842 q 566 999 524 851 q 667 458 622 794 l 681 331 q 868 468 724 467 l 895 353 q 714 247 794 351 q 753 186 711 205 q 853 181 777 175 l 853 0 z "},"l":{"ha":387,"x_min":146,"x_max":553,"o":"m 553 0 l 409 0 q 282 58 328 0 q 213 481 226 131 q 208 948 208 585 q 228 1020 208 994 q 282 1074 255 1047 l 282 492 q 326 249 282 306 q 553 181 378 181 l 553 0 m 424 -284 q 313 -347 392 -325 q 169 -412 220 -372 q 167 -390 167 -399 q 173 -365 167 -381 q 178 -340 178 -348 q 162 -298 178 -325 q 146 -260 146 -272 q 216 -172 146 -228 q 316 -118 283 -118 q 346 -131 333 -118 q 360 -160 360 -144 q 338 -203 360 -203 q 307 -197 328 -203 q 276 -190 287 -190 q 210 -253 233 -190 q 308 -285 249 -282 q 416 -284 288 -284 l 424 -284 z "},"m":{"ha":1010,"x_min":-38,"x_max":1049,"o":"m 1050 0 l 899 0 q 816 56 879 0 q 715 0 766 0 q 647 21 688 0 q 581 56 614 38 q 418 0 498 0 q 324 22 378 0 q 235 64 279 43 q 128 0 169 0 l -39 0 l -39 181 q 15 180 -17 181 q 59 179 47 179 q 171 200 133 179 q 278 310 213 224 q 320 201 278 231 q 438 176 356 176 q 574 221 532 176 q 652 342 613 281 q 636 215 652 281 q 728 176 660 176 q 822 235 783 176 q 875 342 848 288 q 886 285 886 311 q 881 260 886 277 q 875 238 875 244 q 993 179 875 179 q 1025 180 1005 179 q 1050 181 1044 181 l 1050 0 z "},"n":{"ha":802,"x_min":-49,"x_max":796,"o":"m 796 334 q 771 147 796 238 q 666 15 735 15 q 594 45 644 15 q 524 88 559 67 q 340 0 434 0 q 249 22 301 0 q 164 64 207 43 q 63 0 87 0 l -49 0 l -49 181 q 115 198 86 181 q 205 326 136 212 q 215 238 210 281 q 243 180 221 196 q 335 159 270 159 q 482 220 426 159 q 578 350 531 285 q 574 307 578 339 q 570 265 570 280 q 697 183 570 183 q 737 192 716 183 q 748 220 748 220 q 722 299 748 235 q 777 413 735 333 q 796 334 796 351 z "},"o":{"ha":424,"x_min":83,"x_max":401,"o":"m 401 267 q 355 88 401 163 q 202 0 300 0 q 83 147 83 0 q 155 383 83 238 q 150 402 154 389 q 147 424 147 416 q 188 572 147 475 q 283 481 217 536 q 366 397 344 431 q 401 267 401 344 m 338 227 q 203 350 338 250 q 154 239 154 301 q 217 159 154 159 q 288 183 243 159 q 338 227 338 207 z "},"p":{"ha":483,"x_min":169,"x_max":748,"o":"m 170 -303 l 215 -481 q 345 -201 304 -347 q 428 52 398 -13 q 559 11 497 11 q 749 208 749 11 q 691 467 749 338 q 506 625 619 625 q 358 356 419 625 q 307 -35 367 149 q 170 -303 242 -214 m 478 232 l 478 306 q 486 356 478 309 q 499 409 494 403 q 542 435 519 435 q 603 383 565 435 q 641 281 641 331 q 597 194 641 219 q 531 176 555 176 q 478 232 504 176 z "},"q":{"ha":478,"x_min":-38,"x_max":453,"o":"m 376 885 l 271 781 l 164 885 l 271 992 l 376 885 m 453 282 q 367 88 453 176 q 176 0 281 0 l -39 0 l -39 181 l 247 181 q 337 197 278 181 q 406 239 406 217 q 366 326 406 261 q 247 277 302 277 q 163 315 193 277 q 135 406 135 351 q 175 552 135 472 q 278 644 220 644 q 329 615 292 644 q 453 282 453 515 m 319 406 l 319 428 q 255 500 294 473 q 212 466 219 476 q 192 413 204 456 q 223 399 192 413 q 255 390 244 390 q 319 406 272 390 z "},"r":{"ha":499,"x_min":-38,"x_max":510,"o":"m 471 128 q 442 51 471 110 q 399 -24 415 -5 q 216 40 303 40 q 146 20 193 40 q 73 0 99 0 l -39 0 l -39 181 q 160 235 96 181 q 136 346 136 303 q 226 586 163 472 q 378 692 299 692 q 456 652 428 692 q 480 564 480 618 q 458 467 480 508 q 395 492 418 469 q 338 517 366 517 q 260 480 294 517 q 226 397 226 442 q 308 252 200 339 q 471 151 397 181 l 471 128 m 510 -322 l 417 -415 l 325 -322 l 232 -415 l 140 -322 l 233 -230 l 325 -322 l 417 -230 l 510 -322 z "},"s":{"ha":935,"x_min":17,"x_max":909,"o":"m 910 531 q 890 452 910 496 q 854 380 873 417 q 826 408 831 405 q 792 428 817 417 q 651 348 731 410 q 560 224 560 276 q 645 159 560 176 q 801 131 723 144 q 885 27 885 103 q 676 -244 885 -124 q 327 -350 490 -350 q 94 -263 173 -350 q 17 -24 17 -180 q 50 133 17 43 q 136 261 88 238 q 97 59 97 124 q 366 -176 97 -176 q 602 -126 463 -176 q 799 -1 762 -70 q 670 4 735 2 q 550 37 591 11 q 497 142 497 70 q 622 424 497 260 q 866 594 752 594 l 897 576 q 910 531 910 549 z "},"t":{"ha":364,"x_min":208,"x_max":553,"o":"m 553 0 l 409 0 q 282 58 328 0 q 213 481 226 131 q 208 948 208 585 q 228 1020 208 994 q 282 1074 255 1047 l 282 783 q 448 774 365 741 l 494 727 q 282 638 361 626 l 282 492 q 326 249 282 306 q 553 181 378 181 l 553 0 z "},"u":{"ha":744,"x_min":27,"x_max":713,"o":"m 474 753 l 367 649 l 261 753 l 367 859 l 474 753 m 713 247 q 594 -42 713 70 q 299 -151 477 -151 q 104 -93 175 -151 q 27 91 27 -30 q 65 285 27 184 q 172 445 106 401 q 115 215 115 246 q 188 71 115 124 q 347 23 252 23 q 538 62 454 23 q 648 206 648 111 q 617 313 648 250 q 553 405 588 370 q 625 557 585 456 q 663 514 628 555 q 713 247 698 472 z "},"v":{"ha":1134,"x_min":10,"x_max":1156,"o":"m 1156 0 l 1088 0 q 947 134 1017 0 q 367 -31 655 -31 q 124 36 222 -31 q 10 251 10 113 q 43 380 10 316 q 128 478 75 443 q 81 337 81 385 q 241 173 81 227 q 492 134 355 134 q 990 329 796 134 q 1034 209 1003 238 q 1156 181 1065 181 l 1156 0 m 562 -282 l 456 -387 l 349 -282 l 456 -176 l 562 -282 z "},"w":{"ha":1085,"x_min":13,"x_max":1017,"o":"m 535 1040 q 497 951 535 1014 q 501 1017 501 978 q 491 1098 501 1044 q 481 1178 481 1151 q 511 1249 481 1221 q 523 1143 511 1214 q 535 1040 535 1073 m 654 906 q 572 798 654 798 q 542 803 561 798 q 464 751 504 751 q 422 774 438 751 q 408 822 408 795 q 438 892 408 863 q 471 818 453 818 q 509 860 493 818 q 527 921 511 865 q 551 888 528 921 q 575 863 568 863 q 624 966 624 863 l 646 966 q 650 935 646 956 q 654 906 654 915 m 1018 676 q 998 623 1016 663 q 980 579 980 582 q 988 432 980 531 q 996 285 996 334 q 963 98 996 171 q 817 -3 917 -3 q 694 17 728 -3 q 617 111 660 37 q 547 22 569 38 q 437 0 515 0 q 328 27 358 0 q 267 126 312 42 q 194 63 204 68 q 107 52 173 52 q 48 55 61 52 q 14 94 14 63 q 58 222 14 173 q 149 290 78 246 q 231 365 210 328 q 217 412 217 406 q 260 490 217 444 q 286 269 260 360 q 426 127 328 127 q 572 226 572 127 q 571 245 572 235 l 527 613 q 601 706 524 636 q 669 179 643 212 q 799 127 709 127 q 936 183 936 127 q 869 691 936 419 q 966 832 911 801 l 964 788 q 978 724 962 744 q 1018 676 999 700 m 237 211 q 230 268 230 235 q 103 186 187 242 q 128 183 112 186 q 151 180 145 180 q 237 211 201 180 z "},"x":{"ha":1026,"x_min":6,"x_max":1055,"o":"m 1056 0 l 913 0 q 757 164 804 0 q 724 454 724 278 q 726 533 724 495 q 582 92 678 219 q 158 -78 453 -78 q 392 84 247 -36 q 578 288 549 215 q 253 740 533 533 q 159 723 200 723 q 6 896 6 723 q 24 958 6 926 q 74 995 45 995 q 348 812 175 995 q 555 533 500 651 q 611 342 574 490 q 670 631 660 506 q 675 947 675 691 q 794 1083 701 984 q 791 995 794 1087 q 788 822 788 903 q 926 190 788 237 q 1056 181 956 181 l 1056 0 m 788 -283 q 757 -333 772 -308 q 696 -337 754 -337 q 533 -412 626 -337 q 531 -390 531 -398 q 536 -364 531 -381 q 541 -339 541 -347 q 525 -298 541 -324 q 508 -260 508 -271 q 578 -172 508 -228 q 679 -117 647 -117 q 709 -130 696 -117 q 723 -160 723 -143 q 701 -203 723 -203 q 670 -196 690 -203 q 640 -190 651 -190 q 572 -252 597 -190 q 672 -285 613 -281 q 778 -283 650 -283 l 788 -283 z "},"y":{"ha":1112,"x_min":17,"x_max":1127,"o":"m 1127 -8 q 1043 20 1090 0 q 976 48 981 47 q 824 -8 898 -8 q 726 23 779 -8 q 601 -305 694 -195 q 278 -436 491 -436 q 72 -358 133 -436 q 17 -140 17 -290 q 43 20 17 -64 q 121 159 73 119 q 80 -31 80 10 q 359 -247 80 -247 q 538 -215 440 -247 q 663 -112 663 -173 q 574 159 663 11 q 654 303 604 206 q 719 207 674 244 q 828 167 767 167 q 967 217 922 167 q 1051 342 1009 280 q 1035 219 1051 265 q 1127 176 1072 176 l 1127 -8 z "},"z":{"ha":986,"x_min":-38,"x_max":960,"o":"m -39 374 q 12 248 11 251 q 64 210 31 215 q 187 208 74 208 q 385 154 277 208 q 571 54 478 104 q 781 0 682 0 l 961 0 l 961 181 q 688 194 783 181 q 431 278 550 216 q 836 366 628 338 q 684 522 778 483 q 501 564 592 542 q 297 681 383 593 q 213 791 256 736 q 120 867 156 867 q 58 803 79 867 q 42 708 42 758 q 104 557 42 598 q 144 708 104 653 q 478 445 201 665 q 221 400 349 422 q -39 374 70 374 m 160 -6 l 54 -112 l 160 -216 l 267 -112 l 160 -6 z "},"{":{"ha":988,"x_min":10,"x_max":1026,"o":"m 1026 0 q 679 -46 710 0 q 839 -72 759 -58 q 954 -153 954 -94 q 903 -252 954 -187 q 390 -462 738 -462 q 136 -406 237 -462 q 10 -196 10 -337 q 71 -17 10 -124 q 192 128 131 86 q 136 3 164 65 q 104 -129 104 -72 q 222 -290 104 -246 q 438 -319 297 -319 q 661 -287 524 -319 q 850 -205 826 -251 q 753 -181 828 -191 q 642 -155 674 -169 q 590 -78 590 -131 q 689 111 590 36 q 899 181 781 181 l 1026 181 l 1026 0 m 569 -639 l 476 -733 l 384 -640 l 291 -733 l 199 -639 l 292 -548 l 384 -640 l 476 -548 l 569 -639 z "},"|":{"ha":460,"x_min":-40,"x_max":412,"o":"m 175 1126 q 201 1012 175 1081 q 263 918 230 936 l 205 792 l 185 794 q 183 665 184 733 q 183 494 183 590 q 215 319 183 364 q 299 272 233 294 q 413 196 369 247 q 381 107 406 167 q 350 16 357 50 q 276 48 313 32 q 199 65 234 65 q 114 32 165 65 q 32 0 63 0 l -40 0 l -40 176 q 49 176 41 176 q 108 222 108 185 q 102 551 108 331 q 96 881 96 771 l 56 926 l 175 1126 z "},"}":{"ha":973,"x_min":10,"x_max":1026,"o":"m 10 0 q 357 -46 326 0 q 197 -72 277 -58 q 82 -153 82 -94 q 133 -252 82 -187 q 646 -462 299 -462 q 900 -406 799 -462 q 1026 -196 1026 -337 q 965 -17 1026 -124 q 844 128 906 86 q 900 3 872 65 q 932 -129 932 -72 q 815 -290 932 -246 q 598 -319 740 -319 q 375 -287 513 -319 q 186 -205 210 -251 q 283 -181 208 -191 q 394 -155 363 -169 q 447 -78 447 -131 q 347 111 447 36 q 138 181 256 181 l 10 181 l 10 0 m 467 -639 l 560 -733 l 652 -640 l 745 -733 l 838 -639 l 744 -548 l 652 -640 l 560 -548 l 467 -639 z "},"~":{"ha":550,"x_min":-45,"x_max":599,"o":"m 599 0 l 408 0 q 319 44 370 0 q 252 124 276 83 q 201 39 206 44 q 115 0 169 0 l -45 0 l -45 181 q 51 179 -3 181 q 119 177 104 177 q 214 203 185 177 q 301 329 237 224 q 339 202 304 236 q 439 174 368 174 q 512 177 458 174 q 599 181 565 181 l 599 0 m 471 -262 l 376 -356 l 284 -263 l 192 -356 l 99 -262 l 192 -171 l 284 -263 l 376 -171 l 471 -262 z "},"Ó":{"ha":424,"x_min":12,"x_max":401,"o":"m 384 792 l 289 698 l 197 790 l 105 698 l 13 792 l 106 883 l 197 790 l 290 883 l 384 792 m 401 267 q 355 88 401 163 q 202 0 300 0 q 83 147 83 0 q 155 383 83 238 q 150 402 154 389 q 147 424 147 416 q 188 572 147 475 q 283 481 217 536 q 366 397 344 431 q 401 267 401 344 m 338 227 q 203 350 338 250 q 154 239 154 301 q 217 159 154 159 q 288 183 243 159 q 338 227 338 207 z "},"ó":{"ha":424,"x_min":12,"x_max":401,"o":"m 384 792 l 289 698 l 197 790 l 105 698 l 13 792 l 106 883 l 197 790 l 290 883 l 384 792 m 401 267 q 355 88 401 163 q 202 0 300 0 q 83 147 83 0 q 155 383 83 238 q 150 402 154 389 q 147 424 147 416 q 188 572 147 475 q 283 481 217 536 q 366 397 344 431 q 401 267 401 344 m 338 227 q 203 350 338 250 q 154 239 154 301 q 217 159 154 159 q 288 183 243 159 q 338 227 338 207 z "},"Ą":{"ha":598,"x_min":17,"x_max":636,"o":"m 492 -171 l 397 -264 l 305 -172 l 213 -264 l 120 -171 l 213 -80 l 305 -172 l 398 -80 l 492 -171 m 636 0 l 487 0 q 397 67 432 0 q 352 183 374 125 q 249 89 300 110 q 117 72 210 72 q 17 116 17 72 q 103 324 17 236 q 297 452 162 382 l 286 572 q 225 593 285 593 q 95 558 166 594 l 66 667 q 245 698 175 713 q 342 629 316 682 q 375 410 344 563 q 472 188 415 215 q 636 181 490 181 l 636 0 m 320 295 q 304 365 320 305 q 137 271 228 331 q 208 255 181 255 q 272 266 232 255 q 320 295 320 279 z "},"ą":{"ha":598,"x_min":17,"x_max":636,"o":"m 492 -171 l 397 -264 l 305 -172 l 213 -264 l 120 -171 l 213 -80 l 305 -172 l 398 -80 l 492 -171 m 636 0 l 487 0 q 397 67 432 0 q 352 183 374 125 q 249 89 300 110 q 117 72 210 72 q 17 116 17 72 q 103 324 17 236 q 297 452 162 382 l 286 572 q 225 593 285 593 q 95 558 166 594 l 66 667 q 245 698 175 713 q 342 629 316 682 q 375 410 344 563 q 472 188 415 215 q 636 181 490 181 l 636 0 m 320 295 q 304 365 320 305 q 137 271 228 331 q 208 255 181 255 q 272 266 232 255 q 320 295 320 279 z "},"Ć":{"ha":556,"x_min":176,"x_max":708,"o":"m 708 278 q 652 128 690 242 q 404 40 596 83 q 208 181 249 39 q 176 327 176 244 q 239 517 176 429 q 407 613 308 613 q 622 462 560 613 q 463 494 534 494 q 337 463 415 494 q 247 390 247 428 q 308 279 247 344 q 418 214 369 214 q 429 215 424 214 l 708 278 m 486 915 l 380 808 l 486 704 l 592 808 l 486 915 z "},"ć":{"ha":556,"x_min":176,"x_max":708,"o":"m 708 278 q 652 128 690 242 q 404 40 596 83 q 208 181 249 39 q 176 327 176 244 q 239 517 176 429 q 407 613 308 613 q 622 462 560 613 q 463 494 534 494 q 337 463 415 494 q 247 390 247 428 q 308 279 247 344 q 418 214 369 214 q 429 215 424 214 l 708 278 m 486 915 l 380 808 l 486 704 l 592 808 l 486 915 z "},"Ę":{"ha":552,"x_min":-39,"x_max":576,"o":"m 492 -171 l 397 -264 l 305 -172 l 213 -264 l 120 -171 l 213 -80 l 305 -172 l 398 -80 l 492 -171 m 576 0 l 422 0 q 264 79 362 0 q 73 0 144 0 l -39 0 l -39 181 q 152 190 62 181 q 144 278 144 238 q 203 480 144 365 q 347 613 270 613 q 428 543 397 613 q 454 428 454 487 q 383 204 454 310 q 476 178 407 181 q 576 181 404 181 l 576 0 m 366 341 q 347 388 366 363 q 307 413 328 413 q 234 381 268 413 q 200 310 200 349 q 228 265 200 292 q 272 239 257 239 q 331 278 296 239 q 366 341 366 317 z "},"ę":{"ha":552,"x_min":-39,"x_max":576,"o":"m 492 -171 l 397 -264 l 305 -172 l 213 -264 l 120 -171 l 213 -80 l 305 -172 l 398 -80 l 492 -171 m 576 0 l 422 0 q 264 79 362 0 q 73 0 144 0 l -39 0 l -39 181 q 152 190 62 181 q 144 278 144 238 q 203 480 144 365 q 347 613 270 613 q 428 543 397 613 q 454 428 454 487 q 383 204 454 310 q 476 178 407 181 q 576 181 404 181 l 576 0 m 366 341 q 347 388 366 363 q 307 413 328 413 q 234 381 268 413 q 200 310 200 349 q 228 265 200 292 q 272 239 257 239 q 331 278 296 239 q 366 341 366 317 z "},"Ł":{"ha":506,"x_min":2,"x_max":553,"o":"m 553 0 l 409 0 q 282 58 328 0 q 213 481 226 131 q 208 948 208 585 q 228 1020 208 994 q 282 1074 255 1047 l 282 783 l 282 638 l 282 492 q 326 249 282 306 q 553 181 378 181 l 553 0 m 187 583 l 94 492 l 2 585 l 95 676 l 187 583 l 187 583 m 512 735 l 419 644 l 327 737 l 420 828 l 512 735 l 512 735 z "},"ł":{"ha":506,"x_min":2,"x_max":553,"o":"m 553 0 l 409 0 q 282 58 328 0 q 213 481 226 131 q 208 948 208 585 q 228 1020 208 994 q 282 1074 255 1047 l 282 783 l 282 638 l 282 492 q 326 249 282 306 q 553 181 378 181 l 553 0 m 187 583 l 94 492 l 2 585 l 95 676 l 187 583 l 187 583 m 512 735 l 419 644 l 327 737 l 420 828 l 512 735 l 512 735 z "},"Ń":{"ha":802,"x_min":-49,"x_max":796,"o":"m 595 851 l 502 757 l 410 851 l 502 942 l 595 851 m 683 659 l 590 565 l 497 657 l 405 565 l 313 659 l 404 749 l 497 657 l 590 749 l 683 659 m 796 334 q 771 147 796 238 q 666 15 735 15 q 594 45 644 15 q 524 88 559 67 q 340 0 434 0 q 249 22 301 0 q 164 64 207 43 q 63 0 87 0 l -49 0 l -49 181 q 115 198 86 181 q 205 326 136 212 q 215 238 210 281 q 243 180 221 196 q 335 159 270 159 q 482 220 426 159 q 578 350 531 285 q 574 307 578 339 q 570 265 570 280 q 697 183 570 183 q 737 192 716 183 q 748 220 748 220 q 722 299 748 235 q 777 413 735 333 q 796 334 796 351 z "},"ń":{"ha":802,"x_min":-49,"x_max":796,"o":"m 595 851 l 502 757 l 410 851 l 502 942 l 595 851 m 683 659 l 590 565 l 497 657 l 405 565 l 313 659 l 404 749 l 497 657 l 590 749 l 683 659 m 796 334 q 771 147 796 238 q 666 15 735 15 q 594 45 644 15 q 524 88 559 67 q 340 0 434 0 q 249 22 301 0 q 164 64 207 43 q 63 0 87 0 l -49 0 l -49 181 q 115 198 86 181 q 205 326 136 212 q 215 238 210 281 q 243 180 221 196 q 335 159 270 159 q 482 220 426 159 q 578 350 531 285 q 574 307 578 339 q 570 265 570 280 q 697 183 570 183 q 737 192 716 183 q 748 220 748 220 q 722 299 748 235 q 777 413 735 333 q 796 334 796 351 z "},"Ś":{"ha":935,"x_min":17,"x_max":909,"o":"m 363 778 q 333 728 349 753 q 272 726 331 726 q 109 651 203 726 q 107 673 107 665 q 112 698 107 681 q 117 724 117 715 q 101 765 117 738 q 85 803 85 792 q 155 890 85 834 q 255 945 222 945 q 285 932 272 945 q 299 902 299 919 q 276 860 299 860 q 247 866 267 860 q 216 873 226 873 q 149 810 172 873 q 275 776 195 776 q 319 777 289 776 q 363 778 349 778 m 910 531 q 890 452 910 496 q 854 380 873 417 q 826 408 831 405 q 792 428 817 417 q 651 348 731 410 q 560 224 560 276 q 645 159 560 176 q 801 131 723 144 q 885 27 885 103 q 676 -244 885 -124 q 327 -350 490 -350 q 94 -263 173 -350 q 17 -24 17 -180 q 50 133 17 43 q 136 261 88 238 q 97 59 97 124 q 366 -176 97 -176 q 602 -126 463 -176 q 799 -1 762 -70 q 670 4 735 2 q 550 37 591 11 q 497 142 497 70 q 622 424 497 260 q 866 594 752 594 l 897 576 q 910 531 910 549 z "},"ś":{"ha":935,"x_min":17,"x_max":909,"o":"m 363 778 q 333 728 349 753 q 272 726 331 726 q 109 651 203 726 q 107 673 107 665 q 112 698 107 681 q 117 724 117 715 q 101 765 117 738 q 85 803 85 792 q 155 890 85 834 q 255 945 222 945 q 285 932 272 945 q 299 902 299 919 q 276 860 299 860 q 247 866 267 860 q 216 873 226 873 q 149 810 172 873 q 275 776 195 776 q 319 777 289 776 q 363 778 349 778 m 910 531 q 890 452 910 496 q 854 380 873 417 q 826 408 831 405 q 792 428 817 417 q 651 348 731 410 q 560 224 560 276 q 645 159 560 176 q 801 131 723 144 q 885 27 885 103 q 676 -244 885 -124 q 327 -350 490 -350 q 94 -263 173 -350 q 17 -24 17 -180 q 50 133 17 43 q 136 261 88 238 q 97 59 97 124 q 366 -176 97 -176 q 602 -126 463 -176 q 799 -1 762 -70 q 670 4 735 2 q 550 37 591 11 q 497 142 497 70 q 622 424 497 260 q 866 594 752 594 l 897 576 q 910 531 910 549 z "},"Ź":{"ha":986,"x_min":-39,"x_max":961,"o":"m -39 374 q 12 248 11 251 q 64 210 31 215 q 187 208 74 208 q 385 154 277 208 q 571 54 478 104 q 781 0 682 0 l 961 0 l 961 181 q 688 194 783 181 q 431 278 550 216 q 836 366 628 338 q 684 522 778 483 q 501 564 592 542 q 297 681 383 593 q 213 791 256 736 q 120 867 156 867 q 58 803 79 867 q 42 708 42 758 q 104 557 42 598 q 144 708 104 653 q 478 445 201 665 q 221 400 349 422 q -39 374 70 374 m 697 801 l 591 695 l 697 591 l 803 695 l 697 801 m 552 935 l 446 829 l 552 725 l 658 829 l 552 935 z "},"ź":{"ha":986,"x_min":-39,"x_max":961,"o":"m -39 374 q 12 248 11 251 q 64 210 31 215 q 187 208 74 208 q 385 154 277 208 q 571 54 478 104 q 781 0 682 0 l 961 0 l 961 181 q 688 194 783 181 q 431 278 550 216 q 836 366 628 338 q 684 522 778 483 q 501 564 592 542 q 297 681 383 593 q 213 791 256 736 q 120 867 156 867 q 58 803 79 867 q 42 708 42 758 q 104 557 42 598 q 144 708 104 653 q 478 445 201 665 q 221 400 349 422 q -39 374 70 374 m 697 801 l 591 695 l 697 591 l 803 695 l 697 801 m 552 935 l 446 829 l 552 725 l 658 829 l 552 935 z "},"Ż":{"ha":986,"x_min":-39,"x_max":961,"o":"m -39 374 q 12 248 11 251 q 64 210 31 215 q 187 208 74 208 q 385 154 277 208 q 571 54 478 104 q 781 0 682 0 l 961 0 l 961 181 q 688 194 783 181 q 431 278 550 216 q 836 366 628 338 q 684 522 778 483 q 501 564 592 542 q 297 681 383 593 q 213 791 256 736 q 120 867 156 867 q 58 803 79 867 q 42 708 42 758 q 104 557 42 598 q 144 708 104 653 q 478 445 201 665 q 221 400 349 422 q -39 374 70 374 m 565 983 l 459 876 l 565 772 l 672 876 l 565 983 z "},"ż":{"ha":986,"x_min":-39,"x_max":961,"o":"m -39 374 q 12 248 11 251 q 64 210 31 215 q 187 208 74 208 q 385 154 277 208 q 571 54 478 104 q 781 0 682 0 l 961 0 l 961 181 q 688 194 783 181 q 431 278 550 216 q 836 366 628 338 q 684 522 778 483 q 501 564 592 542 q 297 681 383 593 q 213 791 256 736 q 120 867 156 867 q 58 803 79 867 q 42 708 42 758 q 104 557 42 598 q 144 708 104 653 q 478 445 201 665 q 221 400 349 422 q -39 374 70 374 m 565 983 l 459 876 l 565 772 l 672 876 l 565 983 z "}}}
